<svg xmlns="http://www.w3.org/2000/svg" xmlns:xlink="http://www.w3.org/1999/xlink" width="500" zoomAndPan="magnify" viewBox="0 0 375 374.999991" height="500" preserveAspectRatio="xMidYMid meet" version="1.0"><defs><g/></defs><g fill="#ffffff" fill-opacity="1"><g transform="translate(114.883013, 223.299485)"><g><path d="M 23.4375 -72.4375 L 23.4375 -1.277344 C 23.4375 -0.710938 24.003906 0 25 0 L 43.320312 0 C 44.316406 0 45.023438 -0.710938 45.023438 -1.277344 L 45.023438 -72.4375 Z M 1.5625 -94.167969 L 66.757812 -94.167969 C 67.75 -94.167969 68.320312 -94.738281 68.320312 -95.449219 L 68.320312 -112.351562 C 68.320312 -112.917969 67.75 -113.628906 66.757812 -113.628906 L 1.5625 -113.628906 C 0.710938 -113.628906 0 -112.917969 0 -112.351562 L 0 -95.449219 C 0 -94.738281 0.710938 -94.167969 1.5625 -94.167969 Z M 1.5625 -94.167969 "/></g></g></g><g fill="#ffffff" fill-opacity="1"><g transform="translate(197.784133, 273.282616)"><g><path d="M 61.359375 -21.164062 L 0 -21.164062 L 0 -1.277344 C 0 -0.710938 0.710938 0 1.5625 0 L 61.359375 0 C 62.351562 0 62.921875 -0.710938 62.921875 -1.277344 L 62.921875 -19.742188 C 62.921875 -20.453125 62.351562 -21.164062 61.359375 -21.164062 Z M 21.730469 -42.894531 L 21.730469 -112.351562 C 21.730469 -112.917969 21.164062 -113.628906 20.3125 -113.628906 L 1.5625 -113.628906 C 0.710938 -113.628906 0 -112.917969 0 -112.351562 L 0 -42.894531 Z M 21.730469 -42.894531 "/></g></g></g><g fill="#ffffff" fill-opacity="1"><g transform="translate(110.453471, 253.911444)"><g><path d="M 8.140625 -10.03125 L 8.140625 -7.796875 L 5.40625 -7.796875 L 5.40625 0 L 2.921875 0 L 2.921875 -7.796875 L 0.1875 -7.796875 L 0.1875 -10.03125 Z M 8.140625 -10.03125 "/></g></g></g><g fill="#ffffff" fill-opacity="1"><g transform="translate(127.507455, 253.911444)"><g><path d="M 3.25 -10.03125 L 3.25 0 L 0.765625 0 L 0.765625 -10.03125 Z M 3.25 -10.03125 "/></g></g></g><g fill="#ffffff" fill-opacity="1"><g transform="translate(140.242474, 253.911444)"><g><path d="M 8.140625 -10.03125 L 8.140625 -7.796875 L 5.40625 -7.796875 L 5.40625 0 L 2.921875 0 L 2.921875 -7.796875 L 0.1875 -7.796875 L 0.1875 -10.03125 Z M 8.140625 -10.03125 "/></g></g></g><g fill="#ffffff" fill-opacity="1"><g transform="translate(157.296458, 253.911444)"><g><path d="M 6.8125 -4.21875 L 6.8125 -10.03125 L 9.296875 -10.03125 L 9.296875 -4.21875 C 9.296875 -2.757812 8.9375 -1.664062 8.21875 -0.9375 C 7.507812 -0.207031 6.441406 0.15625 5.015625 0.15625 C 3.503906 0.15625 2.40625 -0.1875 1.71875 -0.875 C 1.03125 -1.570312 0.6875 -2.6875 0.6875 -4.21875 L 0.6875 -10.03125 L 3.171875 -10.03125 L 3.171875 -4.21875 C 3.171875 -3.414062 3.296875 -2.867188 3.546875 -2.578125 C 3.796875 -2.296875 4.285156 -2.15625 5.015625 -2.15625 C 5.722656 -2.15625 6.195312 -2.296875 6.4375 -2.578125 C 6.6875 -2.867188 6.8125 -3.414062 6.8125 -4.21875 Z M 6.8125 -4.21875 "/></g></g></g><g fill="#ffffff" fill-opacity="1"><g transform="translate(175.998048, 253.911444)"><g><path d="M 4.578125 -3.75 L 2.546875 -4.21875 C 1.734375 -4.414062 1.179688 -4.710938 0.890625 -5.109375 C 0.597656 -5.503906 0.453125 -6.066406 0.453125 -6.796875 C 0.453125 -7.960938 0.753906 -8.816406 1.359375 -9.359375 C 1.972656 -9.910156 2.925781 -10.1875 4.21875 -10.1875 C 4.757812 -10.1875 5.234375 -10.164062 5.640625 -10.125 C 6.054688 -10.082031 6.441406 -10.007812 6.796875 -9.90625 L 6.796875 -7.6875 C 5.984375 -7.820312 5.425781 -7.898438 5.125 -7.921875 C 4.820312 -7.941406 4.503906 -7.953125 4.171875 -7.953125 C 3.722656 -7.953125 3.394531 -7.875 3.1875 -7.71875 C 2.988281 -7.570312 2.890625 -7.320312 2.890625 -6.96875 C 2.890625 -6.800781 2.921875 -6.671875 2.984375 -6.578125 C 3.054688 -6.492188 3.179688 -6.429688 3.359375 -6.390625 L 5.28125 -5.9375 C 5.832031 -5.8125 6.226562 -5.6875 6.46875 -5.5625 C 6.71875 -5.4375 6.921875 -5.28125 7.078125 -5.09375 C 7.242188 -4.882812 7.363281 -4.617188 7.4375 -4.296875 C 7.519531 -3.984375 7.5625 -3.597656 7.5625 -3.140625 C 7.5625 -1.972656 7.253906 -1.128906 6.640625 -0.609375 C 6.023438 -0.0976562 5.066406 0.15625 3.765625 0.15625 C 3.097656 0.15625 2.460938 0.113281 1.859375 0.03125 C 1.265625 -0.0390625 0.804688 -0.132812 0.484375 -0.25 L 0.484375 -2.609375 C 0.910156 -2.472656 1.414062 -2.363281 2 -2.28125 C 2.582031 -2.195312 3.171875 -2.15625 3.765625 -2.15625 C 4.234375 -2.15625 4.554688 -2.210938 4.734375 -2.328125 C 4.921875 -2.453125 5.015625 -2.691406 5.015625 -3.046875 C 5.015625 -3.265625 4.984375 -3.425781 4.921875 -3.53125 C 4.859375 -3.632812 4.742188 -3.707031 4.578125 -3.75 Z M 4.578125 -3.75 "/></g></g></g><g fill="#ffffff" fill-opacity="1"><g transform="translate(229.337392, 175.968197)"><g><path d="M 7.171875 -2.3125 L 7.171875 0 L 0.765625 0 L 0.765625 -10.03125 L 3.25 -10.03125 L 3.25 -2.3125 Z M 7.171875 -2.3125 "/></g></g></g><g fill="#ffffff" fill-opacity="1"><g transform="translate(237.527619, 175.968197)"><g><path d="M 3.25 -10.03125 L 3.25 0 L 0.765625 0 L 0.765625 -10.03125 Z M 3.25 -10.03125 "/></g></g></g><g fill="#ffffff" fill-opacity="1"><g transform="translate(242.358651, 175.968197)"><g><path d="M 6.03125 -5.171875 L 9.796875 0 L 6.65625 0 L 3.921875 -4.09375 L 3.25 -4.09375 L 3.25 0 L 0.765625 0 L 0.765625 -10.03125 L 3.25 -10.03125 L 3.25 -6.078125 L 3.921875 -6.078125 L 6.6875 -10.03125 L 9.65625 -10.03125 Z M 6.03125 -5.171875 "/></g></g></g><g fill="#ffffff" fill-opacity="1"><g transform="translate(252.772341, 175.968197)"><g><path d="M 3.25 0 L 0.765625 0 L 0.765625 -10.03125 L 3.25 -10.03125 L 3.25 -6.203125 L 6.765625 -6.203125 L 6.765625 -10.03125 L 9.25 -10.03125 L 9.25 0 L 6.765625 0 L 6.765625 -3.96875 L 3.25 -3.96875 Z M 3.25 0 "/></g></g></g><g fill="#ffffff" fill-opacity="1"><g transform="translate(263.60193, 175.968197)"><g><path d="M 3.25 -10.03125 L 3.25 0 L 0.765625 0 L 0.765625 -10.03125 Z M 3.25 -10.03125 "/></g></g></g></svg>